<?xml version="1.0" encoding="UTF-8"?>
<!DOCTYPE svg PUBLIC "-//W3C//DTD SVG 1.1//EN" "http://www.w3.org/Graphics/SVG/1.1/DTD/svg11.dtd">
<svg xmlns="http://www.w3.org/2000/svg" xmlns:xlink="http://www.w3.org/1999/xlink" version="1.1" width="61px" height="361px" viewBox="-0.5 -0.5 61 361"><defs/><g><path d="M 0 15 C 0 6.72 13.43 0 30 0 C 37.96 0 45.59 1.58 51.21 4.39 C 56.84 7.21 60 11.02 60 15 L 60 145 C 60 153.28 46.57 160 30 160 C 13.43 160 0 153.28 0 145 Z" fill="rgb(255, 255, 255)" stroke="rgb(0, 0, 0)" stroke-miterlimit="10" pointer-events="all"/><path d="M 60 15 C 60 23.28 46.57 30 30 30 C 13.43 30 0 23.28 0 15" fill="none" stroke="rgb(0, 0, 0)" stroke-miterlimit="10" pointer-events="all"/><path d="M -70 251 L 90 251 L 90 230 L 130 260 L 90 290 L 90 269 L -70 269 Z" fill="rgb(255, 255, 255)" stroke="rgb(0, 0, 0)" stroke-miterlimit="10" transform="rotate(270,30,260)" pointer-events="all"/></g></svg>